<?xml version="1.0" standalone="no"?>
<!DOCTYPE svg PUBLIC "-//W3C//DTD SVG 20010904//EN"
 "http://www.w3.org/TR/2001/REC-SVG-20010904/DTD/svg10.dtd">
<svg version="1.0" xmlns="http://www.w3.org/2000/svg"
 width="2200.000000pt" height="2200.000000pt" viewBox="0 0 2200.000000 2200.000000"
 preserveAspectRatio="xMidYMid meet">
<metadata>
Created by potrace 1.11, written by Peter Selinger 2001-2013
</metadata>
<g transform="translate(0.000000,2200.000000) scale(0.100000,-0.100000)"
fill="#000000" stroke="none">
<path d="M10749 17793 c-724 -677 -1437 -1192 -1814 -1313 -53 -17 -153 -99
-275 -227 -227 -238 -388 -502 -449 -737 -39 -149 -43 -253 -39 -1126 l4 -835
27 -114 c124 -533 404 -970 825 -1288 293 -221 684 -389 1101 -473 117 -24
360 -60 405 -60 l28 0 -7 218 c-4 119 -10 222 -14 228 -3 6 -121 119 -261 253
l-255 241 -177 -1 -177 -2 -185 177 -185 177 -28 -14 c-75 -38 -169 -22 -221
37 -137 156 27 382 214 297 93 -42 127 -139 89 -256 -5 -17 25 -50 169 -188
l175 -167 119 0 c65 0 121 3 124 6 3 3 -51 60 -121 126 -69 67 -129 128 -133
137 -4 9 -7 84 -8 166 -1 83 -4 158 -8 167 -4 10 -74 81 -156 159 l-149 141
-208 -3 -208 -4 -88 85 c-49 47 -107 103 -130 124 l-41 38 -51 -13 c-97 -24
-186 17 -227 105 -39 84 -26 156 40 222 150 151 389 -2 321 -206 -9 -28 -15
-52 -14 -53 2 -2 55 -51 116 -111 l113 -108 215 4 215 3 0 135 0 135 -144 138
-144 137 -129 0 -128 1 -173 167 c-131 127 -172 173 -173 192 0 21 -11 30 -59
53 -76 36 -105 79 -105 157 0 70 26 124 76 157 116 77 264 14 293 -124 16 -73
-36 -163 -114 -198 -29 -13 -40 -24 -40 -40 0 -14 50 -69 160 -173 l160 -152
126 0 126 0 153 -145 152 -145 7 -177 c6 -132 11 -182 21 -192 8 -8 16 -13 18
-10 2 2 1 93 -1 201 l-4 198 -178 170 -178 170 -106 0 -106 0 -69 65 c-37 36
-73 65 -79 65 -6 0 -22 14 -36 31 -66 78 -3 198 98 185 59 -7 101 -53 101
-112 0 -40 -5 -50 -39 -81 l-39 -36 44 -39 44 -39 98 6 98 6 92 -88 c51 -48
138 -131 193 -185 l102 -97 7 -235 c5 -167 11 -241 20 -253 8 -10 15 -16 18
-13 3 3 1 133 -3 289 l-8 284 -34 32 c-18 17 -109 103 -201 191 l-169 159 -53
-3 c-47 -3 -56 0 -86 26 -30 27 -34 36 -34 80 0 58 26 94 81 112 38 13 87 -3
119 -39 20 -23 25 -76 12 -121 -7 -23 9 -42 197 -219 165 -156 207 -200 210
-225 3 -17 8 -161 11 -321 l6 -290 64 -65 63 -65 7 -173 7 -173 352 -334 351
-333 3 61 c2 34 1 130 -3 214 l-7 152 -99 91 -98 91 -39 -12 c-74 -22 -142 34
-142 117 0 52 53 104 106 104 54 0 86 -19 107 -62 15 -31 16 -44 8 -75 l-11
-38 102 -96 c57 -53 104 -96 104 -95 1 0 -1 108 -4 239 l-5 238 -259 246
c-143 136 -264 255 -269 264 -5 10 -9 60 -9 112 0 51 -3 161 -6 244 l-7 150
-35 19 c-45 24 -89 84 -97 134 -6 33 -22 53 -115 140 l-109 101 -119 -3 -118
-3 -141 134 -140 133 -7 76 c-3 41 -6 130 -6 197 l0 121 -98 97 -98 96 -40
-14 c-133 -47 -264 44 -264 185 0 193 238 270 356 115 35 -46 44 -131 21 -188
l-16 -36 106 -101 c125 -118 121 -108 123 -345 0 -82 4 -155 8 -160 4 -6 58
-59 119 -118 l113 -108 120 2 120 2 100 -93 100 -92 45 41 c25 23 59 44 75 48
29 5 30 7 30 63 l0 57 -172 163 c-95 90 -217 206 -270 258 -97 94 -98 95 -98
143 0 45 -2 48 -37 66 -112 54 -79 213 44 213 38 0 50 -5 79 -34 28 -28 34
-42 34 -76 0 -36 -6 -48 -40 -82 -33 -33 -40 -47 -40 -78 0 -37 9 -47 270
-295 l270 -257 0 -43 c0 -64 13 -91 48 -98 35 -7 97 -58 117 -96 54 -104 9
-223 -102 -273 l-43 -19 0 -122 c0 -67 3 -172 7 -234 l6 -112 210 -198 c115
-109 213 -199 218 -201 10 -4 12 220 2 321 l-6 67 -52 0 c-151 0 -270 153
-235 301 49 204 292 266 433 110 20 -23 37 -46 37 -53 0 -27 19 13 54 116 l38
108 -148 141 c-82 78 -184 175 -226 217 l-78 76 -1 90 c-1 168 14 144 -234
378 -121 115 -223 216 -227 225 -4 9 -7 46 -7 84 -1 37 -5 67 -9 67 -4 0 -38
28 -75 63 l-67 62 0 91 0 91 -161 153 c-157 150 -161 153 -186 139 -123 -66
-235 105 -125 191 39 31 104 27 144 -9 29 -26 33 -35 33 -81 l0 -52 167 -159
166 -159 7 -95 7 -96 46 -44 c26 -24 47 -43 48 -42 1 2 -24 909 -25 915 -1 1
-8 2 -17 2 -8 0 -29 13 -45 29 -24 24 -29 38 -29 76 0 40 5 52 34 81 38 38 85
45 134 20 73 -38 74 -153 2 -194 l-30 -17 1 -90 c0 -49 6 -296 13 -548 l12
-457 26 -26 26 -26 -6 262 -5 261 63 64 c61 62 62 64 51 96 -17 50 -13 85 15
118 43 52 118 54 167 5 79 -79 10 -208 -102 -189 -35 6 -40 3 -96 -55 l-58
-62 6 -186 c4 -103 7 -226 7 -273 l0 -86 156 -147 c86 -81 158 -145 161 -143
2 3 1 102 -3 220 l-7 214 -33 12 c-19 7 -46 29 -61 48 -24 31 -28 46 -28 104
0 53 5 74 21 96 74 99 231 88 283 -21 39 -79 22 -149 -49 -207 l-42 -36 7
-359 8 -359 114 -110 c64 -60 119 -111 123 -113 4 -2 5 84 3 190 -4 118 -10
195 -16 197 -6 2 -26 19 -46 37 -31 28 -36 39 -36 78 0 36 6 51 29 75 76 79
196 27 196 -85 0 -29 -7 -44 -36 -70 -19 -19 -39 -34 -44 -34 -4 0 -6 -98 -3
-217 l5 -218 51 -52 c28 -29 55 -53 59 -53 4 0 8 20 8 44 0 42 4 48 140 191
l140 149 -6 170 -6 171 -36 34 c-21 19 -82 77 -137 130 l-99 95 -8 65 c-4 36
-7 134 -7 218 l-1 152 -102 98 c-57 55 -157 150 -223 213 -66 62 -123 121
-127 129 -4 9 -7 79 -7 156 -1 77 -4 170 -8 208 -6 63 -8 68 -40 89 -44 26
-73 73 -73 116 0 148 185 205 268 82 20 -29 23 -44 20 -88 -5 -57 -29 -91 -82
-119 l-29 -15 6 -202 5 -201 184 -177 c100 -98 186 -177 191 -178 8 0 9 293 1
366 -6 49 -8 51 -55 72 -52 24 -89 66 -108 121 -34 102 28 216 135 247 49 14
59 14 107 0 114 -33 176 -157 131 -264 -19 -46 -57 -87 -95 -102 -35 -15 -33
37 -18 -520 l11 -415 61 -63 c34 -35 79 -77 99 -94 l38 -30 -5 29 c-2 15 -7
155 -10 310 l-6 283 73 80 c40 44 121 131 180 193 l107 113 -6 161 -6 161 -39
13 c-81 27 -146 109 -163 206 -18 108 66 235 176 267 66 20 82 20 148 0 56
-16 123 -69 146 -115 63 -121 23 -270 -91 -337 l-46 -27 6 -178 c3 -97 1 -187
-3 -200 -5 -12 -86 -103 -180 -202 l-171 -180 0 -50 c1 -27 7 -268 14 -534 9
-303 11 -493 5 -509 -5 -13 -68 -85 -139 -160 l-130 -135 0 -82 c0 -45 7 -101
14 -126 8 -24 24 -77 36 -117 l21 -73 20 25 c43 55 135 55 179 -1 29 -38 27
-103 -5 -142 -14 -16 -35 -33 -46 -36 -18 -6 -19 -13 -13 -116 6 -100 5 -112
-13 -137 -20 -27 -22 -92 -3 -92 5 0 38 33 75 73 l67 72 -6 195 c-5 170 -8
196 -23 205 -50 29 -73 63 -73 108 0 105 119 156 192 82 51 -51 40 -138 -22
-173 l-31 -17 1 -200 c1 -110 1 -206 1 -214 -1 -7 -40 -53 -87 -102 l-87 -88
7 -53 c16 -124 12 -118 67 -111 28 3 68 0 96 -7 l47 -14 100 105 c279 291 406
429 406 441 0 8 -16 20 -35 27 -53 19 -101 74 -115 132 -23 94 13 177 95 219
l47 25 -7 155 -6 155 -127 120 c-70 65 -148 140 -173 165 l-46 45 -8 241 -7
242 -37 24 c-98 64 -54 208 64 208 29 0 45 -8 71 -34 29 -29 34 -41 34 -81 0
-38 -5 -51 -28 -73 -15 -15 -35 -31 -45 -37 -14 -9 -16 -19 -9 -73 l7 -63 168
178 169 178 -7 120 -6 120 -56 53 c-40 38 -60 51 -72 46 -36 -16 -101 -16
-127 1 -90 59 -49 205 58 205 78 0 123 -48 117 -124 -3 -32 3 -42 61 -101 l65
-66 3 -138 3 -139 -188 -197 c-177 -186 -188 -200 -190 -239 l-3 -41 68 72
c37 39 133 141 215 226 l147 155 -7 265 -6 266 -36 23 c-46 30 -63 63 -57 112
11 95 129 132 197 60 49 -52 23 -159 -43 -180 -19 -6 -19 -16 -12 -284 l7
-279 -84 -89 c-46 -49 -153 -162 -236 -250 l-153 -161 0 -61 0 -61 118 -113
c64 -62 135 -128 156 -147 l39 -34 -6 70 -6 70 -81 77 -80 76 0 92 0 91 189
198 189 198 -5 199 c-3 109 -8 213 -12 229 -10 41 3 86 35 116 20 19 36 24 76
24 43 0 53 -4 79 -33 41 -46 41 -108 0 -154 -27 -30 -34 -33 -86 -32 l-56 0 7
-183 7 -182 -84 -88 c-46 -48 -133 -139 -193 -201 l-109 -113 7 -72 c6 -71 7
-73 61 -127 l55 -55 0 60 0 60 239 252 240 252 -6 194 -6 193 85 95 85 94 5
66 c5 85 37 137 104 170 136 65 286 -25 286 -172 0 -66 -34 -134 -84 -167 -55
-36 -139 -42 -196 -13 -22 11 -44 26 -48 32 -4 7 -33 -15 -76 -57 l-69 -69 1
-197 c1 -108 -2 -203 -7 -211 -4 -8 -109 -121 -233 -251 -124 -131 -227 -243
-230 -251 -4 -11 15 -629 19 -642 1 -2 21 -13 47 -24 68 -32 114 -107 114
-183 -1 -66 -58 -150 -120 -176 -19 -8 -29 -22 -36 -51 -7 -33 -52 -84 -271
-313 l-263 -275 15 -35 c39 -93 -13 -218 -108 -257 l-30 -13 7 -153 7 -153
-54 -58 -54 -57 -12 -125 c-22 -224 -76 -473 -140 -649 -17 -47 -31 -92 -31
-101 0 -18 19 -18 159 -1 l54 6 -4 205 c-2 113 -3 226 -4 251 l0 46 195 204
c107 112 223 235 259 272 l64 68 -7 93 c-4 55 -3 102 3 117 6 13 150 170 321
349 l311 325 -5 320 c-4 176 -9 368 -12 426 l-6 105 -44 12 c-85 23 -144 100
-144 188 0 73 32 129 94 164 28 17 59 30 69 30 16 0 17 15 17 181 l0 181 169
177 c162 170 168 178 173 224 7 58 45 104 94 113 42 8 104 -21 122 -56 19 -38
9 -108 -20 -137 -33 -32 -98 -42 -132 -19 -14 9 -29 16 -34 16 -5 0 -82 -76
-171 -170 l-161 -169 0 -103 c0 -57 3 -133 6 -169 6 -64 8 -66 40 -78 79 -29
125 -97 126 -186 1 -63 -32 -128 -81 -160 -30 -19 -31 -22 -31 -96 0 -42 3
-171 7 -288 l6 -211 24 22 24 22 -7 227 -7 227 56 64 57 63 -6 135 -6 135 -74
74 c-70 70 -74 76 -74 119 0 39 5 52 35 82 33 34 35 39 25 66 -16 42 -4 89 30
118 41 34 81 41 125 20 74 -35 86 -132 24 -188 -30 -26 -36 -28 -89 -23 -53 6
-59 4 -83 -21 -43 -45 -36 -68 49 -153 l76 -77 6 -154 5 -154 -57 -61 -56 -61
7 -198 6 -198 94 100 93 99 -5 80 c-2 44 -7 209 -11 366 l-6 286 136 142 136
143 -6 53 c-9 71 1 118 33 156 53 62 146 85 220 54 50 -21 72 -42 94 -90 44
-96 -1 -219 -94 -254 -45 -17 -117 -13 -162 9 l-42 20 -90 -92 c-50 -51 -106
-111 -125 -133 l-35 -40 9 -330 c5 -181 11 -335 13 -342 2 -8 23 -9 67 -6 l63
6 90 95 90 95 -3 57 c-6 88 35 148 113 169 148 39 255 -138 154 -254 -43 -49
-94 -61 -167 -40 l-56 17 -101 -106 -100 -106 -83 0 -83 0 -107 -112 c-217
-227 -212 -221 -212 -266 l0 -42 66 0 67 0 101 105 101 105 116 0 116 0 6 41
c20 149 227 133 227 -17 0 -28 -8 -44 -34 -70 -41 -41 -92 -46 -145 -13 -31
18 -47 20 -154 17 l-119 -3 -97 -103 c-95 -102 -96 -103 -142 -102 -80 0 -109
-9 -109 -36 0 -23 3 -24 79 -24 l78 0 70 75 c65 69 74 75 111 75 35 0 43 4 61
33 78 127 264 18 195 -114 -16 -33 -66 -59 -110 -59 -19 0 -40 13 -71 45 -62
65 -82 62 -168 -25 l-69 -70 -86 0 -85 0 -117 -122 c-65 -68 -118 -126 -118
-130 0 -5 15 -8 32 -8 29 0 46 14 134 105 l100 105 92 0 c78 0 92 3 92 16 0
54 76 111 131 99 138 -31 123 -225 -18 -225 -38 0 -50 5 -81 36 l-36 36 -85
-8 -86 -7 -93 -98 -94 -99 -66 0 -67 1 -182 -188 -182 -188 -1 -114 0 -113
-96 -104 -96 -104 135 0 135 0 91 97 c88 95 91 99 91 145 l0 48 -46 0 c-39 0
-51 5 -80 34 -27 27 -34 42 -34 73 0 52 19 85 60 106 66 34 137 3 161 -70 9
-28 8 -43 -6 -80 -13 -33 -16 -62 -12 -104 6 -70 4 -73 -121 -201 l-85 -86
-156 -6 c-171 -8 -201 -11 -201 -26 0 -11 164 -12 300 -1 l86 6 168 177 168
178 -12 35 c-25 75 30 145 114 145 53 0 106 -52 106 -104 0 -83 -64 -137 -138
-116 -42 12 -29 23 -280 -245 l-112 -120 -226 -5 -226 -5 -100 -104 -100 -103
7 -222 c4 -121 9 -222 10 -224 5 -5 153 25 285 59 412 103 813 300 1129 555
308 249 584 621 745 1007 l45 107 1 997 c1 1093 3 1062 -59 1244 -128 380
-416 681 -872 912 -163 83 -234 126 -504 308 -600 404 -1010 754 -1166 995
-23 35 -43 64 -44 64 -2 0 -49 -44 -106 -97z"/>
<path d="M11383 16926 c-92 -42 -92 -171 1 -219 47 -25 95 -16 135 24 38 37
48 84 28 132 -27 62 -101 91 -164 63z"/>
<path d="M10292 16915 c-38 -17 -67 -74 -57 -113 11 -43 59 -82 100 -82 45 0
105 53 105 93 0 83 -75 134 -148 102z"/>
<path d="M9772 16697 c-44 -46 -14 -117 48 -117 63 0 94 77 48 120 -29 27 -69
25 -96 -3z"/>
<path d="M10723 16630 c-17 -10 -37 -28 -42 -39 -26 -47 -4 -127 41 -148 41
-20 56 -22 92 -12 46 13 76 55 76 109 0 34 -6 48 -34 76 -40 40 -83 45 -133
14z"/>
<path d="M9232 16323 c-32 -27 -37 -64 -12 -96 29 -37 80 -37 109 -1 27 35 26
59 -4 89 -28 29 -65 32 -93 8z"/>
<path d="M11891 16234 c-12 -15 -21 -35 -21 -46 0 -27 45 -68 75 -68 30 0 75
41 75 68 0 35 -38 72 -75 72 -24 0 -39 -7 -54 -26z"/>
<path d="M10085 16165 c-63 -63 18 -160 88 -105 37 29 37 80 1 109 -35 27 -59
26 -89 -4z"/>
<path d="M12610 16173 c-28 -10 -59 -46 -70 -79 -23 -67 35 -139 113 -139 32
0 45 7 73 38 38 41 44 79 19 127 -24 47 -86 71 -135 53z"/>
<path d="M11600 16070 c-43 -43 -11 -120 48 -120 35 0 72 37 72 71 0 57 -80
89 -120 49z"/>
<path d="M12100 16003 c-55 -20 -68 -87 -24 -122 15 -12 35 -21 46 -21 27 0
68 44 68 73 0 44 -51 84 -90 70z"/>
<path d="M10269 15720 c-29 -17 -43 -66 -29 -100 33 -81 150 -58 150 29 0 63
-67 103 -121 71z"/>
<path d="M8680 15691 c-16 -16 -32 -40 -36 -55 -9 -38 3 -74 36 -107 23 -24
37 -29 75 -29 38 0 52 5 75 29 52 52 52 113 -2 163 -43 40 -108 40 -148 -1z"/>
<path d="M12726 15619 c-57 -45 -6 -147 61 -123 61 21 69 100 13 129 -38 19
-42 19 -74 -6z"/>
<path d="M11436 15529 c-30 -24 -34 -63 -10 -97 11 -16 25 -22 54 -22 44 0 70
26 70 71 0 30 -40 69 -70 69 -10 0 -29 -9 -44 -21z"/>
<path d="M9400 15480 c-43 -43 -11 -120 48 -120 33 0 72 36 72 67 0 60 -78 95
-120 53z"/>
<path d="M13073 15355 c-60 -26 -90 -107 -60 -165 17 -34 74 -70 111 -70 128
0 167 179 51 234 -40 19 -60 20 -102 1z"/>
<path d="M12525 15170 c-26 -29 -24 -79 4 -102 32 -25 67 -23 96 7 30 30 31
54 4 89 -26 33 -77 36 -104 6z"/>
<path d="M10587 15092 c-39 -43 -7 -122 48 -122 32 0 75 42 75 73 0 57 -86 91
-123 49z"/>
<path d="M6725 14904 c-219 -21 -386 -53 -540 -101 -60 -19 -100 -41 -162 -87
-268 -201 -759 -420 -1413 -630 -198 -63 -600 -180 -707 -206 -29 -6 -53 -16
-53 -21 0 -5 11 -31 24 -57 80 -158 152 -498 190 -892 32 -329 40 -502 37
-870 -5 -917 -7 -835 18 -950 27 -128 69 -254 115 -353 90 -189 265 -398 420
-501 45 -30 424 -268 843 -529 832 -519 765 -484 978 -511 782 -102 1531 140
2156 696 95 86 329 325 329 338 0 4 -83 60 -185 125 l-186 117 -342 -77 c-188
-43 -349 -81 -358 -86 -9 -5 -56 -71 -104 -148 -47 -77 -94 -142 -103 -145 -9
-2 -123 -28 -254 -57 l-236 -53 -6 -40 c-19 -117 -149 -188 -259 -142 -71 29
-126 129 -112 199 11 50 43 100 81 126 77 53 205 32 256 -42 12 -18 23 -34 24
-35 1 -2 109 20 240 50 l238 53 63 99 c35 54 63 102 61 106 -2 4 -79 -10 -173
-31 -93 -21 -173 -38 -176 -39 -3 0 -70 41 -148 90 -78 50 -148 90 -155 90
-21 0 -368 -79 -392 -90 -12 -5 -64 -76 -118 -163 -53 -85 -105 -162 -114
-171 -10 -8 -95 -32 -189 -53 l-172 -38 -10 -41 c-29 -116 -164 -176 -277
-125 -61 28 -114 110 -114 175 0 85 63 168 146 192 49 14 59 14 108 0 51 -15
115 -68 128 -106 3 -9 43 -3 163 24 88 20 162 40 166 44 3 4 52 80 108 169 56
90 109 167 118 171 11 7 -8 23 -79 69 -160 103 -127 98 -344 49 l-189 -43 -63
-99 c-34 -54 -70 -102 -80 -107 -9 -4 -115 -29 -236 -57 -194 -44 -221 -48
-244 -36 -23 12 -30 10 -75 -18 -132 -82 -286 1 -287 153 -1 146 155 233 282
158 66 -39 93 -96 84 -183 -6 -61 -5 -64 17 -69 25 -7 424 80 443 96 6 5 35
48 65 95 29 48 63 92 74 99 20 13 373 95 407 95 9 0 81 -40 160 -90 133 -84
170 -101 182 -82 2 4 -72 56 -166 115 l-171 108 -206 -46 c-113 -26 -222 -51
-242 -56 -31 -8 -43 -21 -88 -94 -34 -54 -60 -87 -74 -90 -12 -3 -51 -12 -87
-19 -36 -8 -78 -21 -95 -30 -16 -9 -38 -16 -48 -16 -36 0 -86 29 -101 59 -56
107 58 214 161 151 30 -18 53 -66 53 -111 0 -15 6 -16 53 -5 50 11 54 14 103
89 29 43 56 83 61 88 11 11 474 119 509 119 11 0 106 -54 210 -120 131 -83
198 -120 218 -120 18 0 26 4 20 9 -20 19 -474 301 -484 301 -11 0 -545 -120
-545 -123 -17 -63 -65 -107 -115 -107 -40 0 -93 40 -106 80 -24 73 31 150 108
150 35 0 47 -6 78 -38 l36 -39 255 58 c139 32 268 58 286 58 24 1 92 -37 295
-165 l263 -167 55 12 c127 28 112 32 270 -68 79 -50 149 -90 155 -88 5 2 218
50 473 108 254 57 462 106 462 109 0 12 -343 220 -363 220 -12 0 -74 -12 -138
-27 l-117 -26 -11 -37 c-15 -51 -42 -72 -101 -78 -46 -4 -52 -2 -85 31 -27 27
-35 43 -35 71 0 52 23 90 66 111 31 14 43 15 75 6 21 -6 47 -23 58 -37 l21
-26 143 32 144 32 209 -131 c114 -72 214 -129 220 -127 7 3 39 10 72 16 l61
12 199 -126 c109 -69 204 -126 209 -126 11 0 98 109 91 114 -1 2 -57 15 -123
31 -336 78 -673 228 -1019 455 -112 73 -121 77 -153 68 -41 -11 -61 -5 -130
39 l-54 34 -354 -80 c-213 -48 -362 -78 -373 -73 -10 4 -108 64 -219 134
l-200 127 -39 -19 c-45 -24 -120 -26 -168 -6 -31 13 -46 11 -175 -18 -77 -18
-142 -35 -144 -37 -2 -2 -29 -46 -61 -96 -32 -51 -62 -95 -66 -98 -12 -7 -359
-85 -380 -85 -9 0 -88 45 -175 100 -88 55 -169 100 -180 100 -11 -1 -71 -13
-134 -28 l-114 -27 -12 -42 c-24 -80 -78 -129 -161 -147 -89 -20 -202 56 -222
149 -20 95 25 185 113 226 81 38 162 18 229 -56 l41 -44 130 29 c71 17 138 30
150 30 12 0 92 -45 179 -100 87 -55 165 -100 174 -100 10 0 82 15 162 34 l145
32 42 65 c100 154 73 136 265 179 l97 21 -11 31 c-6 17 -8 58 -5 94 l6 64 -45
26 -45 26 -361 -81 -361 -82 -39 26 -39 26 -46 -22 c-43 -21 -49 -21 -86 -8
-49 17 -81 58 -81 103 0 70 47 116 120 116 53 0 104 -53 104 -108 0 -35 4 -43
34 -61 18 -12 41 -21 50 -21 9 0 165 34 347 75 183 41 343 75 358 75 14 0 46
-13 71 -28 l44 -29 43 31 c58 41 150 48 210 17 77 -39 109 -105 100 -205 l-6
-61 194 -123 194 -122 288 65 c274 63 302 70 292 79 -5 5 -240 154 -290 184
l-36 21 -30 -43 c-85 -121 -259 -140 -371 -42 -49 43 -82 117 -82 186 0 183
191 304 355 226 62 -29 97 -66 127 -133 21 -48 32 -58 128 -119 l105 -67 -123
118 c-114 110 -272 276 -367 387 l-40 46 -309 -69 c-171 -38 -319 -69 -329
-69 -11 0 -66 29 -122 65 l-102 65 -289 -66 c-159 -36 -300 -67 -314 -67 -14
0 -51 16 -81 35 l-55 35 -94 -23 -95 -24 -81 50 -81 50 -214 -48 -214 -49 -8
-41 c-17 -89 -121 -124 -189 -63 -29 26 -33 36 -33 79 0 39 5 56 24 76 48 51
115 54 166 6 20 -18 25 -17 235 31 118 27 223 49 234 49 10 0 52 -21 93 -46
l74 -47 59 13 c33 7 60 16 60 19 0 6 -730 471 -752 479 -5 2 -24 -3 -42 -12
-45 -21 -74 -20 -114 4 -39 24 -55 62 -49 114 11 80 104 121 174 77 33 -21 59
-84 49 -119 -4 -13 93 -79 458 -309 255 -161 472 -293 482 -293 11 0 25 4 33
9 15 10 19 7 -271 189 l-146 93 -17 77 c-9 42 -18 82 -20 88 -2 7 -23 18 -46
26 -52 17 -83 56 -83 102 0 70 47 116 120 116 52 0 104 -53 104 -106 0 -38
-31 -104 -49 -104 -9 0 20 -147 33 -168 8 -13 435 -284 457 -289 17 -5 382 73
408 87 8 4 -50 47 -169 122 l-181 115 -47 -24 c-146 -75 -293 74 -221 223 27
58 78 88 144 88 96 0 154 -55 164 -155 l6 -58 295 -187 c162 -103 301 -189
308 -192 17 -6 323 61 320 70 -2 4 -74 52 -161 107 l-157 100 -35 -15 c-57
-24 -93 -18 -131 20 -27 27 -34 42 -34 73 0 82 70 138 144 113 49 -16 70 -44
76 -103 l5 -51 184 -116 183 -117 62 14 c94 21 94 21 54 48 -42 29 -44 33 -94
256 l-37 167 -146 92 -146 92 -183 -42 c-101 -23 -191 -39 -200 -35 -9 3 -92
53 -183 111 -99 62 -177 104 -192 104 -14 0 -144 -27 -289 -60 -145 -34 -275
-61 -289 -62 -18 -1 -86 37 -204 112 l-178 112 -34 -16 c-76 -36 -164 -10
-196 57 -61 128 59 255 187 198 38 -16 51 -29 67 -66 12 -27 19 -61 17 -83
l-3 -36 130 -84 c72 -46 148 -94 171 -108 l41 -24 251 57 c139 31 252 59 252
62 0 8 -336 221 -349 221 -6 0 -26 -11 -46 -24 -108 -74 -257 -18 -295 111
-46 151 101 292 251 241 87 -29 133 -95 133 -191 l1 -57 389 -246 389 -246
124 28 c67 15 123 30 123 34 0 3 -111 75 -246 160 -135 85 -252 163 -261 172
-12 13 -123 463 -123 499 0 4 -62 46 -137 94 -109 68 -141 85 -153 76 -61 -44
-97 -56 -170 -56 -88 0 -140 23 -189 82 -137 166 -24 413 189 413 141 0 250
-111 250 -255 l0 -60 156 -99 c86 -55 160 -109 165 -120 5 -12 32 -124 60
-251 32 -146 57 -236 67 -246 10 -9 211 -138 447 -287 237 -149 438 -277 448
-284 12 -9 25 -44 37 -93 73 -323 70 -313 98 -331 14 -9 85 -29 158 -45 73
-15 141 -30 151 -33 14 -5 19 -1 20 16 7 94 131 131 196 58 21 -23 27 -40 27
-74 0 -40 3 -47 37 -68 32 -20 215 -99 220 -95 3 4 -22 103 -29 114 -5 6 -81
57 -170 113 l-161 102 -34 -16 c-54 -26 -90 -21 -129 18 -29 29 -34 41 -34 80
0 36 6 52 29 78 26 29 35 33 80 33 69 0 103 -33 111 -107 l5 -52 170 -107 170
-107 20 -84 21 -83 94 -47 c52 -25 97 -47 100 -47 3 0 26 19 52 43 l47 44 -80
353 c-44 195 -84 358 -89 363 -5 5 -30 -2 -61 -18 -69 -34 -122 -34 -190 2
-70 36 -99 89 -99 178 l0 63 -122 75 c-68 42 -133 76 -146 76 -13 0 -114 -21
-225 -46 -111 -25 -211 -46 -222 -46 -11 0 -111 57 -222 127 -195 123 -202
127 -225 111 -47 -33 -130 -12 -158 39 -61 114 78 226 176 141 22 -18 28 -34
32 -77 4 -53 6 -55 56 -86 28 -17 52 -28 54 -23 5 13 -98 464 -107 470 -4 3
-49 32 -101 64 l-93 60 -70 -12 c-80 -14 -97 -24 -97 -58 0 -13 -13 -38 -29
-56 -26 -29 -35 -33 -81 -33 -46 0 -55 4 -81 33 -41 46 -41 108 0 154 26 29
35 33 80 33 41 0 55 -5 77 -26 l26 -26 89 19 90 20 117 -74 117 -74 61 -269
c55 -245 63 -271 87 -289 15 -11 29 -18 31 -15 10 10 -126 585 -142 601 -21
20 -429 278 -441 278 -5 0 -22 -7 -37 -15 -36 -19 -56 -19 -99 -1 -111 47 -69
216 53 216 64 0 123 -74 108 -133 -5 -20 19 -38 229 -171 129 -81 236 -155
239 -164 6 -18 146 -642 146 -649 0 -2 26 -20 57 -40 l56 -36 191 43 c105 23
195 46 199 50 4 3 -16 21 -45 39 l-53 33 -95 -21 c-52 -12 -103 -21 -113 -21
-18 0 -149 80 -160 97 -3 5 -31 124 -63 264 -35 159 -63 260 -73 270 -23 23
-332 215 -358 223 -12 4 -34 21 -49 39 -37 43 -30 109 15 149 36 33 102 38
139 12 57 -40 66 -123 17 -174 l-26 -28 155 -98 c86 -54 158 -105 160 -113 3
-9 30 -128 60 -264 31 -137 58 -252 60 -256 3 -4 32 -24 65 -45 l60 -37 73 17
73 17 -29 21 c-16 12 -37 28 -47 36 -14 11 -38 98 -94 349 -41 183 -75 335
-75 336 0 1 -74 49 -165 106 -184 115 -168 95 -205 262 -21 96 -22 98 -61 117
-121 62 -132 247 -19 329 112 81 267 28 306 -105 14 -49 14 -59 0 -108 -18
-61 -77 -123 -126 -133 -17 -3 -30 -9 -30 -13 0 -5 9 -49 21 -98 l20 -89 165
-104 c134 -85 166 -109 173 -134 5 -16 40 -167 77 -335 42 -190 73 -311 83
-321 9 -9 134 -89 279 -178 l262 -162 29 20 c136 97 316 -3 310 -171 -2 -50 1
-60 23 -81 17 -16 30 -43 37 -78 6 -30 44 -198 84 -374 l72 -319 30 -6 c106
-23 176 -119 161 -224 l-6 -41 97 -60 c150 -93 170 -109 177 -147 6 -27 29
-50 118 -123 132 -107 383 -353 492 -483 l79 -93 34 62 c19 34 32 67 30 73 -3
6 -93 67 -201 134 -108 68 -200 131 -205 140 -5 10 -41 161 -80 337 -39 176
-75 327 -79 336 -4 9 -43 47 -87 84 -198 167 -471 492 -615 732 -93 155 -189
349 -251 506 l-53 137 -56 34 c-44 28 -57 32 -63 20 -11 -20 -86 -61 -125 -68
-79 -14 -188 47 -212 120 -12 35 -9 133 4 164 4 11 -31 38 -139 105 -117 73
-146 96 -154 120 -5 17 -31 127 -57 245 l-48 215 -43 41 c-36 34 -43 46 -43
80 0 91 79 145 157 108 54 -27 80 -81 64 -135 -11 -35 -45 -68 -85 -82 -11 -4
91 -458 107 -473 6 -7 70 -48 140 -92 l129 -81 39 26 c130 86 309 -9 309 -162
0 -18 7 -38 15 -45 8 -7 15 -9 15 -6 0 6 -39 150 -56 208 -6 21 -143 108 -170
108 -10 0 -57 -9 -102 -20 l-84 -20 -39 22 c-38 21 -59 60 -59 109 0 10 -15
20 -40 28 -119 35 -95 221 28 221 52 0 97 -31 112 -75 15 -46 7 -76 -31 -120
-26 -29 -30 -41 -25 -67 8 -39 33 -68 59 -68 11 0 60 9 109 21 l89 21 62 -38
c34 -20 65 -39 68 -40 3 -2 1 20 -6 48 -11 50 -15 54 -80 95 -38 24 -74 53
-81 65 -6 13 -28 102 -49 198 l-38 175 -60 30 c-80 39 -111 92 -105 177 5 74
37 121 106 155 61 30 107 28 172 -6 l40 -21 0 110 0 110 -77 39 c-94 47 -216
86 -328 106 -85 15 -309 26 -380 19z"/>
<path d="M14562 14900 c-162 -17 -308 -58 -433 -121 l-76 -38 -6 -243 c-7
-269 -24 -455 -63 -686 l-26 -154 22 -15 c36 -25 52 -77 40 -123 -12 -44 -38
-67 -87 -76 -31 -6 -32 -8 -52 -93 -11 -47 -34 -158 -51 -246 -48 -242 -42
-229 -109 -275 -50 -34 -66 -52 -107 -127 -176 -325 -345 -546 -618 -810
l-156 -150 -55 -268 c-31 -147 -53 -270 -50 -273 3 -3 83 47 178 110 l174 116
26 131 26 132 -30 27 c-85 76 -15 219 96 198 113 -21 125 -179 18 -216 -24 -8
-43 -17 -43 -21 0 -3 -13 -67 -29 -142 l-29 -135 122 80 c268 178 285 191 290
213 3 12 35 168 71 346 36 178 68 332 71 341 2 9 99 78 214 153 l210 137 0 49
c0 61 20 112 59 148 25 24 32 44 55 156 14 70 26 137 26 147 0 10 -27 59 -60
108 -33 49 -60 98 -60 108 0 22 66 350 75 374 4 9 76 62 160 118 84 55 157
106 163 113 5 6 21 68 35 135 l25 124 -44 40 c-51 47 -68 91 -62 164 9 104 87
174 197 174 113 0 194 -81 194 -196 0 -77 -34 -132 -102 -166 -30 -16 -65 -28
-77 -28 -25 0 -23 5 -54 -155 -11 -60 -25 -120 -30 -133 -6 -13 -76 -66 -170
-128 -88 -57 -160 -107 -160 -109 0 -3 -13 -69 -30 -147 -16 -77 -30 -150 -30
-160 0 -10 27 -59 60 -108 33 -49 60 -100 60 -114 0 -21 -29 -173 -45 -239 -6
-23 -3 -25 39 -29 26 -3 64 -17 87 -33 44 -29 53 -28 107 14 21 16 32 56 93
357 38 186 71 349 74 362 3 12 24 36 47 52 40 29 42 33 39 78 -3 58 22 95 74
112 94 31 175 -59 138 -151 -24 -61 -81 -83 -151 -58 -27 9 -37 8 -66 -11 -19
-11 -37 -29 -40 -38 -3 -9 -35 -165 -71 -347 -36 -181 -70 -340 -75 -352 -5
-12 -31 -37 -58 -55 -41 -27 -48 -36 -41 -53 15 -39 9 -118 -12 -163 -29 -60
-84 -95 -159 -100 -51 -4 -65 0 -117 28 l-59 33 -190 -127 -191 -127 -56 -277
c-32 -152 -57 -285 -57 -295 0 -19 12 -12 221 126 l106 71 -30 58 c-55 106
-35 223 51 300 50 45 135 73 199 64 141 -19 242 -157 214 -294 -6 -31 -18 -67
-27 -80 -16 -24 -16 -25 7 -19 13 4 69 17 125 28 l101 22 58 286 c32 157 62
296 66 308 5 12 55 53 112 91 l103 70 57 283 c32 156 62 298 68 314 6 20 27
42 67 67 l57 37 13 83 c8 45 17 89 22 98 4 8 41 38 81 65 l73 50 44 212 44
212 -41 39 c-37 35 -41 44 -41 86 0 39 5 53 28 76 76 76 198 24 196 -82 -2
-42 -28 -79 -74 -103 -24 -12 -29 -29 -69 -232 -24 -120 -47 -223 -50 -230 -3
-6 -40 -34 -82 -61 l-75 -49 -11 -59 c-6 -32 -9 -61 -7 -63 2 -2 172 108 379
244 l375 247 0 42 c0 93 79 148 157 110 54 -27 80 -81 64 -134 -21 -71 -96
-101 -164 -65 -27 14 -33 10 -486 -290 -377 -249 -460 -308 -465 -330 -4 -15
-5 -29 -3 -32 3 -2 94 55 203 127 109 73 207 135 217 139 11 4 56 0 101 -9
l81 -17 42 38 c30 28 52 39 73 39 65 0 120 -53 120 -115 0 -122 -167 -157
-216 -45 -16 36 -22 40 -73 51 -113 25 -106 27 -347 -134 l-221 -147 -41 -207
c-23 -114 -40 -208 -38 -211 2 -2 84 50 183 116 l178 119 0 61 c0 97 54 153
152 160 49 3 64 0 93 -20 106 -72 109 -206 7 -282 -34 -25 -124 -28 -173 -7
-30 14 -32 13 -326 -181 -162 -107 -299 -201 -303 -208 -9 -14 -65 -274 -65
-302 0 -14 36 6 160 89 151 100 160 108 160 138 0 81 41 125 118 125 50 0 88
-29 103 -80 16 -51 -11 -107 -62 -133 -34 -16 -39 -16 -87 -1 l-52 17 -177
-117 -178 -118 -16 -74 c-9 -41 -13 -74 -8 -74 4 0 23 9 42 20 l34 20 195 -41
195 -40 145 95 145 96 36 181 c20 100 42 188 49 197 7 9 90 66 184 128 l170
113 59 288 c32 158 61 297 65 308 5 12 86 71 184 135 l176 115 0 45 c0 87 60
150 143 150 131 0 194 -152 101 -245 -46 -47 -91 -54 -160 -26 l-53 22 -168
-113 -168 -113 -47 -235 c-26 -129 -46 -243 -45 -253 2 -15 36 4 174 95 l172
113 -6 61 c-10 107 44 187 146 214 101 27 217 -43 239 -145 35 -165 -132 -297
-281 -222 l-46 24 -378 -250 c-208 -137 -381 -252 -385 -256 -8 -7 -60 -252
-55 -257 2 -2 113 70 248 160 135 90 254 166 265 170 11 3 132 -16 269 -44
l248 -51 133 88 133 88 -6 62 c-9 93 10 147 71 208 188 188 495 -3 411 -255
-33 -99 -134 -170 -239 -170 -23 0 -68 12 -101 25 l-60 25 -150 -100 c-97 -64
-160 -100 -177 -100 -15 0 -125 20 -245 45 -120 25 -228 45 -241 45 -13 0
-208 -123 -468 -295 -246 -162 -456 -295 -468 -295 -11 -1 -104 16 -206 37
l-185 37 -67 -45 c-37 -25 -101 -84 -147 -136 l-80 -91 39 -6 c26 -4 47 -16
65 -38 24 -28 27 -39 22 -82 -8 -84 -72 -122 -153 -91 l-45 17 -94 -62 c-78
-51 -99 -61 -122 -56 -23 5 -34 1 -56 -22 l-27 -28 88 -17 c48 -10 96 -19 107
-19 11 -1 93 47 183 107 129 86 161 112 157 126 -3 10 -1 36 5 59 25 92 150
109 200 28 38 -63 14 -141 -50 -168 -29 -12 -39 -11 -82 4 l-49 17 -82 -52
c-45 -29 -122 -79 -171 -112 l-90 -60 -110 22 c-61 12 -118 24 -127 27 -10 3
-43 -18 -83 -52 l-67 -57 31 -32 c16 -17 38 -55 48 -85 l17 -54 355 -73 c195
-40 361 -71 369 -68 10 4 12 17 7 50 -25 162 139 276 288 201 l48 -24 124 81
c143 95 124 58 184 351 22 109 42 201 44 205 3 4 95 67 205 140 191 127 200
135 194 161 -11 60 51 130 117 130 65 0 116 -64 107 -134 -10 -75 -79 -111
-156 -83 l-46 16 -47 -30 c-27 -17 -48 -34 -48 -39 0 -7 80 -26 333 -76 l138
-27 102 69 102 69 14 72 13 72 -35 34 c-43 40 -53 74 -37 121 16 50 53 76 107
76 38 0 50 -5 79 -34 26 -26 34 -42 34 -71 0 -49 -27 -93 -67 -107 -36 -13
-36 -14 -53 -103 -6 -33 -13 -67 -16 -77 -7 -22 -233 -170 -253 -164 -9 3
-131 28 -272 57 -253 51 -256 52 -284 33 -25 -16 -26 -19 -9 -26 23 -9 555
-118 578 -118 9 0 115 66 236 147 211 140 221 148 215 174 -9 39 18 95 54 113
52 27 98 21 138 -19 33 -33 35 -39 31 -85 -6 -58 -26 -84 -75 -101 -28 -9 -43
-8 -79 6 l-44 17 -213 -139 c-116 -77 -221 -145 -232 -151 -17 -8 -88 3 -334
54 -172 35 -324 64 -336 64 -13 0 -46 -14 -74 -31 -56 -35 -47 -11 -102 -279
-16 -79 -28 -148 -27 -152 3 -9 100 57 109 75 3 7 14 54 24 105 10 51 23 99
30 106 7 7 44 31 81 54 l69 41 263 -55 c212 -43 267 -52 284 -43 52 28 316
207 339 231 55 55 151 41 183 -27 20 -41 20 -56 2 -100 -39 -92 -178 -82 -211
15 l-10 30 -150 -100 c-83 -55 -157 -100 -165 -100 -8 -1 -132 23 -275 52
l-260 52 -61 -41 c-60 -41 -60 -42 -75 -112 -9 -39 -12 -71 -7 -71 5 0 26 12
48 26 l40 26 323 -66 c177 -36 334 -66 347 -66 14 0 89 43 178 102 101 67 162
101 180 101 15 0 72 -10 128 -22 l101 -22 51 32 c135 84 290 3 300 -157 l4
-63 -43 -40 c-67 -62 -153 -105 -196 -98 -85 14 -145 87 -151 183 -5 70 1 65
-97 84 -33 6 -67 13 -76 16 -10 3 -83 -39 -175 -101 -108 -71 -168 -105 -187
-105 -16 0 -173 30 -349 66 l-319 66 -267 -180 -267 -180 3 -55 c6 -91 -47
-178 -127 -209 -47 -18 -119 -11 -167 16 -43 24 -48 25 -74 11 -27 -14 -54
-10 -393 60 -201 41 -369 75 -373 77 -5 2 -30 -18 -55 -43 -74 -74 -180 -86
-258 -29 -25 17 -25 17 -153 -68 l-129 -86 -79 13 -80 13 -68 -35 c-184 -96
-446 -193 -655 -242 -64 -15 -117 -32 -117 -38 0 -11 106 -153 121 -162 4 -3
100 56 213 130 l205 136 363 -75 363 -75 48 30 c26 16 69 43 96 60 l49 31 448
-92 c246 -50 454 -90 463 -87 9 2 171 106 359 231 338 223 344 227 336 254 -5
15 -9 54 -9 88 0 70 24 114 83 155 30 20 48 24 108 24 65 0 76 -3 117 -32 25
-18 48 -33 52 -33 4 0 70 41 147 92 l139 91 249 -50 c247 -50 249 -50 277 -32
16 11 46 19 71 19 35 0 49 -6 73 -29 33 -33 36 -46 13 -55 -10 -4 -25 3 -40
19 -13 14 -34 25 -49 25 -51 0 -96 -75 -64 -107 8 -8 5 -13 -11 -18 -28 -9
-33 -3 -39 47 l-6 42 -230 47 c-126 25 -234 44 -240 42 -5 -3 -69 -44 -142
-92 -122 -80 -131 -88 -125 -111 22 -86 -9 -168 -83 -218 -46 -31 -54 -33
-110 -29 -33 3 -74 8 -90 12 -28 6 -55 -9 -263 -146 -127 -83 -229 -156 -226
-160 16 -27 69 -2 248 117 139 92 195 124 210 120 12 -3 46 -11 77 -17 l55
-11 116 76 c64 42 119 84 122 93 2 10 10 45 16 78 19 101 28 119 65 139 29 16
42 17 85 9 45 -9 52 -8 61 8 16 31 68 52 112 46 110 -15 132 -171 30 -214 -68
-28 -124 0 -156 78 -12 30 -21 37 -53 42 -61 10 -80 -9 -99 -100 -9 -43 -20
-89 -24 -103 -9 -31 -234 -189 -270 -189 -13 -1 -52 4 -87 11 l-64 11 -161
-107 c-160 -107 -176 -124 -114 -126 11 -1 -5 -11 -35 -24 -55 -22 -55 -22
-140 -5 -83 17 -86 17 -117 -3 -39 -23 -40 -30 -13 -68 l20 -29 -21 -6 c-14
-5 -25 -2 -30 6 -26 43 -27 43 -54 31 -25 -11 -25 -13 -11 -34 20 -28 20 -34
-1 -42 -11 -5 -24 2 -37 18 -18 21 -44 29 -179 56 -88 17 -161 29 -164 27 -9
-10 30 -57 51 -62 11 -3 64 -14 116 -25 140 -30 140 -30 140 -39 0 -20 -59
-21 -158 -1 -59 11 -117 25 -129 30 -12 5 -39 34 -58 64 -20 30 -46 57 -58 59
-12 3 -126 26 -254 52 l-232 46 -73 -49 c-116 -78 -99 -75 -254 -42 -76 16
-139 28 -141 27 -1 -2 32 -55 75 -117 l77 -114 105 -23 c58 -12 117 -22 132
-23 24 0 98 35 98 47 0 3 -9 16 -20 30 -13 17 -20 41 -20 69 0 62 39 104 101
111 41 5 50 2 82 -26 19 -18 38 -44 42 -60 12 -58 -35 -127 -94 -137 -20 -3
-64 -24 -99 -46 l-62 -40 -133 27 c-72 14 -139 29 -149 31 -9 3 -57 67 -107
143 -80 122 -114 161 -128 148 -2 -3 44 -76 102 -164 l105 -160 229 -46 c126
-26 235 -47 244 -47 8 0 29 14 47 30 43 40 104 42 149 4 17 -14 31 -30 31 -35
0 -20 -31 -20 -56 0 -51 40 -117 13 -117 -47 0 -37 -26 -48 -44 -18 -9 17 -51
29 -260 71 l-248 50 -122 184 c-67 102 -128 188 -135 192 -7 4 -71 19 -143 33
l-129 26 -183 -121 c-101 -67 -183 -127 -183 -133 0 -19 289 -297 398 -384 57
-45 143 -110 193 -144 62 -43 85 -64 75 -70 -36 -20 -301 -107 -306 -101 -303
367 -745 636 -1270 777 -132 35 -347 77 -462 91 l-58 7 0 -204 0 -204 258
-257 259 -258 165 1 c96 1 174 -3 185 -8 27 -16 198 -191 191 -197 -3 -3 -19
-10 -35 -14 -29 -8 -35 -4 -114 75 l-84 84 -125 0 -125 0 115 -115 c75 -76
109 -116 99 -119 -8 -2 -27 -9 -44 -14 -30 -10 -34 -5 -357 317 l-328 326 0
-215 0 -215 96 -96 c95 -95 97 -96 129 -86 69 21 145 -30 145 -97 0 -20 -4
-36 -9 -36 -5 0 -16 -2 -24 -5 -10 -5 -13 1 -10 22 10 63 -69 101 -117 58 -24
-22 -26 -71 -4 -97 16 -16 15 -18 -1 -24 -42 -16 -71 39 -53 102 l10 36 -106
108 -106 107 0 244 0 245 -50 49 -50 49 0 223 0 222 -32 5 c-77 12 -159 12
-154 1 16 -42 70 -229 95 -330 67 -271 104 -515 121 -805 l11 -175 31 -32 c22
-22 32 -44 35 -76 l5 -45 -58 -17 c-286 -85 -651 -182 -658 -174 -6 5 -21 9
-35 9 -15 1 -39 7 -56 14 -29 13 -31 12 -85 -40 -48 -46 -66 -57 -129 -74 -41
-12 -78 -19 -83 -18 -5 2 39 50 97 107 l105 104 -11 35 c-17 52 -7 134 23 179
14 22 46 50 72 63 l46 25 0 151 c0 117 3 155 15 170 8 11 15 41 15 71 0 55 26
273 40 337 8 37 -7 24 -246 -215 l-254 -254 0 -109 0 -110 -330 -331 c-326
-327 -330 -332 -330 -372 0 -51 -6 -54 -130 -60 -72 -4 -100 -10 -115 -23 -11
-10 -38 -23 -60 -29 l-40 -10 57 54 56 55 71 0 c69 0 71 1 71 25 0 24 -2 25
-77 25 l-76 0 -73 -70 c-64 -62 -76 -70 -111 -70 -31 0 -43 -6 -60 -28 -27
-37 -125 -60 -160 -37 -34 23 -56 72 -48 111 10 54 43 85 98 91 54 6 88 -11
112 -57 13 -25 22 -30 52 -30 32 0 46 9 109 70 l72 70 89 0 88 0 120 120 120
120 -40 0 c-38 0 -47 -7 -135 -95 l-95 -95 -96 0 -97 0 -7 -27 c-9 -39 -53
-82 -91 -89 -43 -8 -100 20 -121 59 -37 72 16 167 93 167 42 0 89 -23 104 -50
10 -18 21 -20 103 -20 l92 0 97 100 98 100 73 0 72 0 177 178 177 177 3 112 3
113 105 105 105 105 -140 0 -140 0 -93 -93 c-90 -90 -92 -93 -92 -140 l0 -47
35 0 c109 0 163 -121 87 -193 -35 -33 -72 -42 -117 -27 -65 21 -91 92 -61 164
10 23 12 54 9 95 l-6 61 113 115 113 115 175 2 c129 2 176 6 180 16 3 9 -39
12 -190 12 l-193 0 -172 -177 -172 -178 6 -42 c3 -25 0 -55 -7 -73 -36 -86
-184 -76 -209 14 -13 48 2 99 37 127 22 17 36 20 82 16 l55 -5 181 179 180
179 229 0 228 0 98 97 98 96 3 213 3 213 -40 -5 c-105 -15 -342 -67 -452 -98
-843 -243 -1469 -789 -1787 -1558 l-36 -87 0 -230 c0 -210 -1 -230 -17 -235
-38 -12 -637 -120 -973 -176 -775 -129 -1803 -260 -2355 -300 -207 -15 -690
-12 -920 5 -319 24 -696 75 -852 116 -227 59 -362 185 -408 381 -40 172 -1
325 125 481 71 89 109 125 278 265 443 368 1000 730 1530 996 72 36 138 75
146 88 22 31 20 90 -3 119 -10 13 -62 51 -116 84 -53 33 -146 97 -207 143 -80
59 -119 82 -140 82 -61 0 -734 -335 -1223 -608 -936 -523 -1922 -1218 -2380
-1677 -346 -345 -565 -667 -626 -918 -28 -117 -31 -282 -5 -377 66 -252 278
-459 619 -604 398 -170 862 -255 1602 -295 1079 -59 2241 29 4030 304 121 19
595 106 1054 195 458 89 835 160 836 158 2 -2 11 -38 20 -81 62 -301 236 -584
489 -795 125 -104 253 -186 438 -279 267 -136 883 -560 1208 -831 169 -141
365 -343 434 -444 l59 -87 71 65 c823 753 1405 1180 1819 1335 76 28 100 44
185 119 243 217 446 501 537 750 65 182 65 169 65 996 l0 750 48 16 c26 9 191
71 367 138 176 67 730 272 1230 457 1585 584 1628 600 2041 786 1698 763 2665
1298 3562 1969 365 273 609 487 788 689 245 278 383 501 441 716 33 123 37
290 9 393 -76 280 -318 492 -741 649 -457 170 -879 234 -1834 282 -266 13
-1269 7 -1521 -10 -394 -26 -617 -43 -645 -50 -27 -7 -17 -12 105 -60 74 -29
191 -69 260 -88 205 -57 205 -57 208 -77 2 -10 -12 -52 -31 -95 -19 -42 -44
-107 -56 -146 -46 -159 -67 -379 -37 -404 7 -6 82 -18 167 -26 220 -22 510
-63 607 -85 46 -11 97 -20 113 -20 68 0 172 -88 223 -188 89 -175 85 -345 -12
-507 -99 -165 -642 -629 -1007 -861 -109 -69 -288 -174 -297 -174 -11 0 -23
357 -22 670 2 771 93 1450 230 1722 13 26 24 52 24 57 0 5 -24 15 -52 21 -108
26 -510 143 -708 206 -653 210 -1136 425 -1412 629 -91 67 -141 87 -318 130
-209 50 -486 73 -658 55z m1539 -4215 c-30 -14 -56 -24 -58 -21 -8 8 63 46 87
46 19 0 12 -6 -29 -25z m-7446 -2419 c18 -13 17 -15 -20 -21 -22 -4 -56 -11
-75 -16 -60 -15 -67 -11 -32 21 36 34 94 41 127 16z m4665 -253 c-1 -52 -31
-115 -71 -146 -85 -64 -190 -56 -267 20 -24 24 -41 47 -37 51 12 12 85 30 85
21 0 -16 63 -49 93 -49 57 0 90 29 116 102 9 24 24 32 69 37 8 1 12 -12 12
-36z m-322 -367 c135 -135 172 -178 172 -198 0 -21 7 -29 33 -37 49 -16 104
-67 117 -107 42 -126 -45 -254 -173 -254 -114 0 -193 86 -185 201 5 72 39 119
108 151 36 16 50 29 50 43 0 12 -59 79 -157 177 l-158 158 -121 0 c-106 0
-123 2 -138 19 -17 18 -17 19 0 23 9 1 76 2 148 0 l131 -3 173 -173z m-468
109 l44 -45 100 0 99 0 73 -67 c40 -38 84 -77 99 -88 22 -17 29 -31 32 -72 5
-45 2 -54 -24 -83 -58 -65 -166 -45 -193 35 -16 48 -6 82 37 123 l36 33 -39
40 -38 39 -104 0 -103 0 -60 57 c-51 49 -58 58 -42 64 31 13 38 10 83 -36z
m-85 -85 c87 -88 91 -91 126 -85 103 17 173 -84 119 -173 -33 -53 -99 -68
-156 -33 -45 27 -59 69 -45 128 l12 46 -97 98 c-91 91 -98 105 -59 108 6 1 51
-40 100 -89z m-450 -160 l110 -110 114 0 114 0 144 -142 143 -142 0 -195 0
-194 98 -99 c96 -97 98 -99 127 -88 65 25 155 8 209 -39 58 -51 74 -157 36
-236 -54 -112 -209 -141 -302 -57 -68 61 -85 133 -53 223 l16 43 -106 106
-105 105 0 195 0 195 -117 117 -118 117 -123 3 -123 3 -95 97 -95 96 -32 -34
c-18 -19 -50 -41 -72 -48 l-40 -14 -3 -59 -3 -58 261 -260 260 -260 0 -51 c0
-48 2 -52 30 -64 46 -19 70 -56 70 -106 0 -102 -120 -152 -192 -79 -52 52 -43
129 22 175 25 18 30 28 30 63 0 41 -3 45 -265 307 l-265 266 0 61 0 61 -36 12
c-39 13 -104 65 -104 84 0 7 17 17 39 22 32 9 42 8 61 -8 14 -11 39 -18 67
-18 36 0 50 6 74 29 16 16 29 37 29 46 0 14 49 44 75 45 6 0 60 -49 120 -110z
m-675 -155 l75 -75 -3 -121 -3 -122 225 -226 226 -227 0 -72 0 -72 70 -66 70
-66 0 -96 0 -96 158 -158 157 -159 38 16 c102 43 195 -63 143 -164 -30 -58
-124 -70 -175 -22 -27 25 -31 36 -31 82 l0 53 -165 166 -165 166 0 92 0 92
-41 45 c-23 25 -45 45 -50 45 -5 0 -9 -202 -9 -453 l0 -453 36 -17 c67 -32 82
-127 28 -181 -52 -51 -138 -42 -175 18 -35 57 -16 132 41 161 l30 16 0 549 0
549 -25 28 -24 28 -1 -258 0 -259 -65 -68 -66 -67 13 -46 c10 -40 10 -51 -5
-82 -32 -68 -126 -83 -181 -29 -79 79 -13 206 99 191 40 -6 43 -4 103 56 l62
63 0 269 0 268 -147 149 c-81 81 -151 148 -155 148 -4 0 -8 -96 -8 -214 l0
-215 40 -22 c95 -53 113 -170 39 -254 -77 -87 -222 -66 -270 39 -37 81 -16
157 58 209 l43 31 0 361 0 361 -75 74 c-41 41 -75 77 -75 80 0 5 38 18 80 29
3 0 39 -33 80 -74z m-215 -286 c69 -48 78 -118 21 -175 -26 -26 -42 -34 -70
-34 -124 0 -167 145 -62 209 l36 23 0 138 c0 124 2 139 18 142 15 3 17 -10 20
-138 l3 -142 34 -23z m-340 -300 l135 -136 0 -214 0 -213 220 -221 220 -221 0
-216 0 -215 39 -27 c50 -35 75 -86 68 -138 -17 -129 -165 -172 -256 -74 -18
19 -25 40 -28 78 -5 65 18 106 76 140 l41 23 0 199 0 200 -182 183 c-100 101
-186 183 -190 183 -4 0 -8 -94 -8 -210 l0 -210 38 -15 c91 -38 141 -132 121
-225 -39 -180 -288 -212 -368 -47 -48 99 -4 228 90 267 l29 12 0 467 0 466
-89 89 -90 90 -3 -312 -3 -312 -182 -183 -183 -182 0 -162 0 -163 35 -14 c99
-42 161 -135 159 -241 -3 -215 -265 -326 -419 -177 -105 101 -105 263 0 364
21 20 51 42 67 49 l28 11 0 191 0 191 183 183 182 184 5 501 5 501 60 17 60
17 3 -171 2 -171 135 -136z m-545 132 c0 -214 1 -230 18 -235 35 -12 64 -53
69 -100 5 -42 3 -48 -30 -81 -30 -30 -42 -35 -81 -35 -36 0 -52 6 -78 29 -29
26 -33 36 -33 79 0 53 26 95 67 108 15 4 18 16 18 70 0 35 -4 64 -8 64 -4 0
-83 -76 -175 -168 l-166 -168 6 -124 5 -125 53 -54 c46 -47 55 -52 73 -42 37
20 98 13 130 -14 81 -68 31 -195 -75 -195 -38 0 -50 5 -80 35 -32 32 -35 39
-31 84 3 48 2 50 -59 114 l-63 65 0 138 0 138 200 201 c162 162 200 206 200
228 0 15 -3 27 -7 27 -4 0 -106 -98 -225 -217 l-218 -218 0 -261 0 -262 35
-21 c22 -13 42 -36 52 -58 13 -33 14 -43 2 -77 -45 -126 -219 -96 -219 38 0
38 37 90 70 101 19 6 20 17 20 283 l0 276 245 246 245 246 0 51 c0 47 6 59 33
62 4 1 7 -102 7 -228z m-180 122 l0 -57 -196 -197 -196 -196 3 -251 3 -251
-23 -25 c-36 -38 -82 -50 -123 -33 -53 23 -73 52 -73 109 0 44 4 53 33 80 30
26 40 29 85 27 l52 -3 3 185 2 185 190 189 190 190 0 47 c0 45 4 51 43 57 4 0
7 -25 7 -56z m-467 -207 l-183 -184 0 -197 0 -198 -90 -91 c-89 -91 -90 -93
-90 -142 -1 -132 -121 -229 -243 -195 -91 26 -147 98 -147 189 0 88 37 147
115 183 67 31 145 19 217 -33 15 -11 26 -4 82 51 l65 64 3 204 3 203 144 144
c143 143 145 145 215 165 39 11 76 20 81 20 6 1 -72 -82 -172 -183z m-376 -94
c-158 -158 -177 -181 -177 -210 0 -105 -121 -159 -194 -86 -77 78 -12 206 97
191 22 -3 47 -13 56 -21 14 -15 28 -3 166 133 131 130 179 167 220 170 5 1
-70 -79 -168 -177z m-50 112 c-3 -3 -12 -4 -19 -1 -8 3 -5 6 6 6 11 1 17 -2
13 -5z m-458 -130 c-31 -34 -78 -54 -126 -54 -44 0 -83 9 -83 19 0 6 188 58
219 60 10 1 6 -8 -10 -25z"/>
<path d="M13082 7340 c-127 -78 -27 -274 111 -216 69 28 96 110 57 173 -37 61
-108 79 -168 43z"/>
<path d="M12817 7522 c-39 -42 -5 -122 50 -122 31 0 73 43 73 75 0 56 -86 89
-123 47z"/>
<path d="M12540 7513 c-55 -70 42 -151 105 -88 30 30 31 54 4 89 -29 36 -80
36 -109 -1z"/>
<path d="M12187 6610 c-37 -29 -37 -80 -1 -109 35 -27 59 -26 89 4 63 63 -18
160 -88 105z"/>
<path d="M12880 6463 c-28 -10 -59 -46 -70 -79 -23 -70 46 -151 120 -140 47 7
100 64 100 107 0 77 -80 137 -150 112z"/>
<path d="M11323 6430 c-37 -15 -54 -69 -37 -115 10 -24 60 -46 89 -39 32 8 65
49 65 81 0 29 -51 83 -77 82 -10 0 -28 -4 -40 -9z"/>
<path d="M11492 5953 c-7 -3 -19 -18 -28 -34 -12 -25 -13 -34 -2 -56 35 -74
138 -49 138 33 0 39 -66 74 -108 57z"/>
<path d="M12330 5760 c-43 -43 -11 -120 48 -120 36 0 72 37 72 73 0 36 -33 67
-70 67 -17 0 -39 -9 -50 -20z"/>
<path d="M11775 5395 c-41 -40 -30 -92 25 -115 79 -33 132 93 54 129 -37 16
-52 14 -79 -14z"/>
<path d="M11000 7020 c-27 -27 -26 -71 3 -98 30 -28 68 -28 95 1 44 46 14 117
-48 117 -17 0 -39 -9 -50 -20z"/>
<path d="M10797 5569 c-39 -30 -54 -87 -33 -131 30 -64 102 -86 162 -49 95 58
52 201 -60 201 -29 0 -52 -7 -69 -21z"/>
<path d="M10131 5315 c-89 -76 -40 -215 76 -215 38 0 50 5 78 33 38 38 50 74
40 114 -3 14 -21 41 -40 60 -43 43 -107 47 -154 8z"/>
<path d="M11253 5270 c-17 -10 -37 -28 -42 -39 -45 -83 53 -180 138 -137 31
16 61 61 61 91 0 29 -30 74 -60 90 -38 20 -58 19 -97 -5z"/>
<path d="M10149 6612 c-49 -41 -15 -122 51 -122 31 0 70 39 70 70 0 10 -9 29
-21 44 -25 31 -66 35 -100 8z"/>
<path d="M9961 6064 c-27 -35 -26 -59 4 -89 47 -48 115 -19 115 48 0 66 -78
93 -119 41z"/>
<path d="M9661 5904 c-27 -35 -27 -65 2 -92 46 -44 117 -17 117 44 0 69 -78
101 -119 48z"/>
<path d="M9495 6165 c-30 -30 -31 -54 -4 -89 42 -53 122 -23 122 46 0 62 -73
89 -118 43z"/>
<path d="M8952 6094 c-26 -18 -52 -65 -52 -94 0 -56 57 -110 117 -110 102 0
147 136 66 200 -31 24 -99 27 -131 4z"/>
<path d="M8869 6567 c-45 -35 -43 -91 5 -122 29 -19 58 -13 86 18 27 28 25 63
-5 92 -26 27 -61 32 -86 12z"/>
<path d="M8504 14840 c-11 -4 -33 -22 -47 -40 -50 -59 -30 -152 39 -185 52
-25 101 -15 142 30 26 28 32 43 32 79 0 86 -88 148 -166 116z"/>
<path d="M12253 14686 c-31 -28 -38 -41 -38 -73 0 -50 27 -91 72 -110 46 -19
78 -10 120 32 23 23 33 42 33 64 0 106 -111 157 -187 87z"/>
<path d="M8798 14554 c-54 -29 -44 -107 15 -128 22 -8 33 -6 55 11 72 53 8
160 -70 117z"/>
<path d="M9051 14544 c-12 -15 -21 -35 -21 -46 0 -27 45 -68 75 -68 30 0 75
41 75 68 0 35 -38 72 -75 72 -24 0 -39 -7 -54 -26z"/>
<path d="M6351 14519 c-53 -53 -43 -142 21 -175 49 -25 96 -18 134 20 28 28
34 42 34 76 0 34 -6 48 -34 76 -29 29 -41 34 -79 34 -37 0 -51 -5 -76 -31z"/>
<path d="M14630 14543 c-28 -10 -59 -46 -70 -79 -23 -67 35 -139 113 -139 32
0 45 7 73 38 38 41 44 79 19 127 -24 47 -86 71 -135 53z"/>
<path d="M13159 14491 c-20 -20 -29 -39 -29 -61 0 -43 47 -90 90 -90 44 0 69
16 86 56 12 29 12 39 0 68 -26 64 -97 76 -147 27z"/>
<path d="M7295 14467 c-19 -19 -37 -46 -40 -60 -10 -40 2 -76 40 -114 27 -27
41 -33 75 -33 119 0 171 128 85 208 -29 26 -43 32 -81 32 -39 0 -51 -5 -79
-33z"/>
<path d="M9934 14466 c-29 -29 -34 -41 -34 -79 0 -37 5 -51 31 -76 25 -26 39
-31 76 -31 38 0 50 5 79 34 28 28 34 42 34 76 0 34 -6 48 -34 76 -28 28 -42
34 -76 34 -34 0 -48 -6 -76 -34z"/>
<path d="M15446 14388 c-24 -34 -20 -73 10 -97 15 -12 34 -21 44 -21 10 0 29
9 44 21 32 25 36 77 8 102 -28 25 -87 22 -106 -5z"/>
<path d="M6860 14310 c-27 -27 -25 -66 5 -95 29 -30 68 -32 95 -5 26 26 26 81
2 103 -25 23 -78 21 -102 -3z"/>
<path d="M11215 14235 c-46 -45 -19 -118 43 -118 69 0 99 80 46 122 -35 27
-59 26 -89 -4z"/>
<path d="M7490 14230 c-14 -11 -29 -20 -35 -20 -35 -1 -35 -16 0 -176 19 -87
39 -168 44 -180 11 -25 87 -74 78 -50 -3 8 -15 95 -27 193 -12 98 -24 195 -28
215 l-7 37 -25 -19z"/>
<path d="M11821 14136 c-32 -18 -50 -53 -51 -99 0 -31 7 -46 34 -73 28 -28 42
-34 76 -34 34 0 48 6 76 34 37 37 45 82 22 131 -22 50 -104 71 -157 41z"/>
<path d="M16060 14130 c-42 -42 -8 -120 53 -120 58 0 91 85 49 123 -25 23 -78
21 -102 -3z"/>
<path d="M10380 14067 c-13 -7 -35 -28 -48 -47 -34 -50 -26 -104 22 -147 68
-63 170 -34 197 56 28 95 -81 184 -171 138z"/>
<path d="M8514 14016 c-28 -28 -34 -42 -34 -76 0 -57 50 -110 104 -110 74 0
116 43 116 116 0 54 -53 104 -110 104 -34 0 -48 -6 -76 -34z"/>
<path d="M11047 14032 c-26 -29 -22 -77 9 -101 35 -27 59 -26 89 4 30 29 32
68 5 95 -26 26 -81 26 -103 2z"/>
<path d="M5885 13975 c-40 -39 -28 -93 26 -113 31 -12 64 0 84 32 19 29 13 57
-18 86 -28 27 -63 25 -92 -5z"/>
<path d="M6195 13975 c-30 -30 -31 -54 -4 -89 42 -53 122 -23 122 46 0 62 -73
89 -118 43z"/>
<path d="M13067 13962 c-39 -43 -7 -122 48 -122 32 0 75 42 75 73 0 57 -86 91
-123 49z"/>
<path d="M5068 13954 c-77 -41 -75 -169 2 -209 84 -43 180 13 180 105 0 92
-99 149 -182 104z"/>
<path d="M7125 13905 c-47 -46 -17 -115 49 -115 41 0 66 26 66 68 0 66 -69 94
-115 47z"/>
<path d="M11033 13868 c4 -12 14 -58 23 -103 9 -44 20 -83 23 -87 3 -4 5 37 3
91 -3 95 -4 99 -29 110 -24 11 -25 10 -20 -11z"/>
<path d="M16464 13806 c-58 -58 -38 -140 40 -166 108 -35 179 109 89 180 -40
32 -89 26 -129 -14z"/>
<path d="M14830 13800 c-42 -42 -7 -120 55 -120 28 0 65 40 65 71 0 63 -75 94
-120 49z"/>
<path d="M12894 13758 c-79 -38 -24 -161 56 -128 27 11 50 46 50 76 0 21 -46
64 -67 63 -10 0 -28 -5 -39 -11z"/>
<path d="M5865 13635 c-14 -13 -25 -36 -25 -50 0 -30 41 -75 68 -75 35 0 72
38 72 75 0 24 -7 39 -26 54 -35 27 -59 26 -89 -4z"/>
<path d="M13931 13549 c-7 -33 -10 -63 -8 -66 3 -2 15 0 26 6 25 14 37 55 25
89 -16 45 -31 35 -43 -29z"/>
<path d="M15794 13598 c-79 -38 -24 -161 56 -128 57 24 60 103 4 129 -29 13
-32 13 -60 -1z"/>
<path d="M12711 13524 c-27 -35 -26 -59 4 -89 63 -63 160 18 105 88 -29 37
-80 37 -109 1z"/>
<path d="M7424 13466 c-90 -40 -98 -158 -14 -201 62 -32 128 -6 156 61 36 85
-58 177 -142 140z"/>
<path d="M16469 13305 c-15 -8 -34 -31 -44 -51 -50 -107 83 -205 174 -128 101
85 -13 243 -130 179z"/>
<path d="M4921 13229 c-26 -25 -31 -39 -31 -76 0 -38 5 -50 34 -79 28 -28 42
-34 76 -34 34 0 48 6 76 34 28 28 34 42 34 76 0 34 -6 48 -34 76 -29 29 -41
34 -79 34 -37 0 -51 -5 -76 -31z"/>
<path d="M11184 13220 c-12 -5 -24 -12 -27 -17 -9 -15 14 -187 26 -196 7 -4
30 -6 52 -3 56 7 95 51 95 109 0 51 -21 84 -66 103 -38 16 -50 16 -80 4z"/>
<path d="M15492 13210 c-32 -13 -53 -66 -40 -102 12 -35 58 -61 93 -52 32 8
65 49 65 81 0 29 -51 83 -77 82 -10 0 -28 -4 -41 -9z"/>
<path d="M6217 13192 c-24 -27 -21 -74 6 -100 30 -29 62 -28 92 3 29 28 32 61
9 93 -20 28 -83 31 -107 4z"/>
<path d="M9150 13179 c-37 -15 -68 -48 -80 -84 -24 -74 40 -155 123 -155 32 0
46 7 78 39 32 32 39 46 39 77 0 51 -32 102 -75 120 -39 16 -50 17 -85 3z"/>
<path d="M4454 13022 c-82 -66 -39 -182 66 -182 61 0 113 75 91 132 -24 64
-108 91 -157 50z"/>
<path d="M10155 13005 c-47 -46 -17 -115 49 -115 41 0 66 26 66 68 0 66 -69
94 -115 47z"/>
<path d="M13735 12957 c-16 -40 -32 -76 -34 -82 -2 -5 7 -2 20 6 17 12 27 32
36 79 7 35 12 64 11 66 -2 1 -16 -30 -33 -69z"/>
<path d="M17024 12886 c-28 -28 -34 -42 -34 -75 0 -53 22 -97 60 -116 108 -56
221 57 165 165 -19 38 -63 60 -116 60 -33 0 -47 -6 -75 -34z"/>
<path d="M11950 12870 c-27 -27 -25 -66 5 -95 29 -30 64 -32 93 -5 28 26 29
80 4 103 -25 23 -78 21 -102 -3z"/>
<path d="M11184 12750 c0 -69 1 -97 3 -62 2 34 2 90 0 125 -2 34 -3 6 -3 -63z"/>
<path d="M12300 12830 c-26 -26 -26 -81 -2 -103 26 -24 77 -21 102 5 27 29 25
64 -5 93 -29 30 -68 32 -95 5z"/>
<path d="M14243 12824 c-40 -20 -67 -75 -59 -118 4 -18 20 -46 37 -62 24 -23
39 -29 74 -29 37 0 50 6 77 33 27 27 33 40 33 77 0 36 -6 50 -30 75 -38 38
-88 47 -132 24z"/>
<path d="M7624 12771 c-95 -58 -52 -201 60 -201 54 0 91 28 107 79 29 97 -78
176 -167 122z"/>
<path d="M10511 12594 c0 -11 3 -14 6 -6 3 7 2 16 -1 19 -3 4 -6 -2 -5 -13z"/>
<path d="M15131 12584 c-27 -35 -27 -65 2 -92 46 -44 117 -17 117 44 0 69 -78
101 -119 48z"/>
<path d="M10524 12372 c2 -154 4 -163 26 -187 13 -14 25 -24 27 -22 1 2 -4 44
-13 93 -9 49 -22 132 -29 184 l-14 95 3 -163z"/>
<path d="M4325 12465 c-63 -63 18 -160 88 -105 37 29 37 80 1 109 -35 27 -59
26 -89 -4z"/>
<path d="M4942 12430 c-46 -43 -15 -120 48 -120 63 0 93 75 47 118 -29 28 -67
28 -95 2z"/>
<path d="M5420 12325 c-68 -73 35 -183 108 -115 40 38 37 93 -7 127 -27 21
-75 15 -101 -12z"/>
<path d="M7193 12310 c-26 -11 -43 -40 -43 -74 0 -27 41 -66 70 -66 10 0 29 9
44 21 34 27 35 71 1 104 -26 27 -37 29 -72 15z"/>
<path d="M6110 12250 c-27 -27 -26 -71 3 -98 46 -44 117 -14 117 48 0 38 -32
70 -70 70 -17 0 -39 -9 -50 -20z"/>
<path d="M16502 12254 c-28 -20 -31 -83 -4 -107 29 -26 77 -22 101 9 27 35 26
59 -4 89 -28 29 -61 32 -93 9z"/>
<path d="M14089 12237 c-38 -25 -64 -84 -55 -121 9 -37 53 -83 91 -96 66 -22
155 43 155 114 0 35 -30 86 -62 106 -43 26 -87 25 -129 -3z"/>
<path d="M15956 12109 c-68 -54 6 -163 79 -115 47 31 45 95 -5 121 -37 19 -42
19 -74 -6z"/>
<path d="M16802 12090 c-28 -26 -29 -80 -4 -103 25 -23 78 -21 102 3 27 27 25
66 -5 95 -29 30 -64 32 -93 5z"/>
<path d="M7256 12049 c-15 -12 -26 -30 -26 -44 0 -20 8 -27 52 -40 65 -19 74
-19 82 1 12 30 6 55 -19 79 -30 30 -54 31 -89 4z"/>
<path d="M10643 11748 l2 -138 41 0 42 0 -32 103 c-18 56 -38 118 -44 137 -9
29 -11 12 -9 -102z"/>
<path d="M13155 11868 c-50 -29 -58 -75 -20 -113 38 -39 86 -30 114 23 14 26
8 53 -17 74 -25 23 -54 29 -77 16z"/>
<path d="M16695 11818 c-50 -29 -58 -75 -20 -113 52 -53 125 -11 115 65 -4 38
-62 67 -95 48z"/>
<path d="M4330 11793 c-55 -70 42 -151 105 -88 30 30 31 54 4 89 -29 36 -80
36 -109 -1z"/>
<path d="M8033 11710 c-18 -11 -33 -23 -33 -28 0 -11 181 -112 191 -106 15 9
10 78 -7 102 -19 27 -65 52 -96 52 -13 0 -38 -9 -55 -20z"/>
<path d="M12725 11660 c-3 -6 -70 -52 -148 -104 -150 -100 -344 -205 -465
-252 -69 -27 -73 -31 -68 -56 8 -39 87 -237 143 -355 l48 -103 181 119 c100
66 184 124 188 129 7 12 135 632 130 632 -1 0 -6 -5 -9 -10z"/>
<path d="M14486 11639 c-65 -51 -1 -153 73 -114 48 24 55 72 16 110 -30 30
-54 31 -89 4z"/>
<path d="M8856 11613 c4 -16 10 -39 14 -52 l6 -25 22 31 21 30 -29 21 c-38 28
-42 28 -34 -5z"/>
<path d="M14748 11616 c-43 -32 -40 -91 7 -122 21 -14 30 -14 55 -4 55 23 66
75 25 115 -26 27 -60 32 -87 11z"/>
<path d="M14330 11514 l-85 -86 85 55 c76 49 85 58 85 86 1 17 0 31 0 31 0 0
-39 -39 -85 -86z"/>
<path d="M8920 11523 c-28 -46 -39 -83 -22 -83 11 0 82 117 75 124 -13 13 -24
4 -53 -41z"/>
<path d="M6888 11534 c-77 -41 -75 -169 2 -209 84 -43 180 13 180 105 0 92
-99 149 -182 104z"/>
<path d="M8966 11456 c-25 -40 -46 -85 -46 -99 0 -35 49 -249 61 -263 10 -13
336 -220 361 -229 16 -6 56 73 130 258 61 155 62 147 -24 181 -84 32 -296 141
-375 192 -29 19 -55 34 -57 34 -2 0 -25 -33 -50 -74z"/>
<path d="M5132 11480 c-46 -43 -17 -120 44 -120 69 0 101 78 48 119 -34 27
-64 27 -92 1z"/>
<path d="M17058 11472 c-85 -52 -68 -169 29 -202 42 -15 96 8 123 52 24 40 25
60 5 102 -29 60 -102 83 -157 48z"/>
<path d="M6315 11420 c-26 -10 -61 -49 -70 -78 -9 -31 10 -84 41 -113 38 -36
103 -34 143 5 17 17 34 45 37 64 16 81 -74 154 -151 122z"/>
<path d="M12880 11239 c-157 -104 -166 -112 -175 -159 l-7 -35 53 51 c30 28
99 89 154 134 155 128 155 128 -25 9z"/>
<path d="M13817 11068 c-42 -33 -76 -62 -74 -66 32 -69 61 -92 117 -92 92 0
144 127 77 187 -37 33 -39 33 -120 -29z"/>
<path d="M14943 11055 c-80 -34 -82 -159 -3 -200 37 -19 63 -19 100 0 41 21
60 53 60 100 0 47 -19 79 -60 100 -35 18 -55 18 -97 0z"/>
<path d="M4564 11026 c-24 -24 -34 -43 -34 -65 0 -93 94 -149 171 -104 98 58
57 203 -58 203 -38 0 -50 -5 -79 -34z"/>
<path d="M16238 10996 c-46 -34 -38 -99 15 -124 22 -11 31 -10 55 2 49 25 56
73 17 111 -26 27 -60 32 -87 11z"/>
<path d="M15670 10983 c-28 -10 -59 -46 -70 -79 -9 -25 -8 -40 4 -68 15 -37
67 -76 99 -76 56 0 117 60 117 115 0 73 -83 133 -150 108z"/>
<path d="M13615 10924 c-27 -19 -81 -54 -118 -76 -37 -22 -65 -43 -63 -46 6
-5 236 144 236 153 0 7 -1 7 -55 -31z"/>
<path d="M12403 10797 c-62 -40 -115 -76 -118 -79 -4 -3 2 -23 12 -43 l19 -36
44 53 c24 29 71 81 104 116 32 34 57 62 55 62 -2 0 -54 -33 -116 -73z"/>
<path d="M7600 10728 c-27 -29 -25 -64 5 -93 29 -30 68 -32 95 -5 26 26 26 81
2 103 -26 24 -77 21 -102 -5z"/>
<path d="M5716 10679 c-30 -24 -34 -63 -10 -97 11 -16 25 -22 54 -22 44 0 70
26 70 71 0 30 -40 69 -70 69 -10 0 -29 -9 -44 -21z"/>
<path d="M5565 10445 c-28 -27 -30 -42 -14 -79 23 -50 92 -51 124 -2 19 29 13
57 -18 86 -28 27 -63 25 -92 -5z"/>
<path d="M5196 10389 c-31 -24 -56 -69 -56 -99 0 -36 31 -90 61 -105 64 -33
145 -10 173 49 20 42 20 69 1 106 -23 45 -62 70 -110 70 -28 0 -51 -7 -69 -21z"/>
<path d="M10608 10373 l-38 -4 1 -177 c1 -139 3 -170 11 -142 14 44 98 301
105 318 5 12 -3 13 -79 5z"/>
<path d="M13975 10255 c-63 -63 18 -160 88 -105 37 29 37 80 1 109 -35 27 -59
26 -89 -4z"/>
<path d="M6944 10001 c-45 -27 -64 -59 -64 -107 0 -47 25 -86 70 -109 37 -19
64 -19 104 0 87 42 89 178 2 219 -45 21 -74 20 -112 -3z"/>
<path d="M5883 9981 c-38 -24 -53 -49 -53 -91 0 -46 25 -85 66 -105 75 -35
154 17 154 101 0 88 -93 141 -167 95z"/>
<path d="M9350 9330 c-43 -43 -11 -120 48 -120 36 0 72 37 72 73 0 36 -33 67
-70 67 -17 0 -39 -9 -50 -20z"/>
<path d="M9695 9275 c-47 -46 -17 -115 49 -115 41 0 66 26 66 68 0 66 -69 94
-115 47z"/>
<path d="M10475 9020 c-73 -28 -95 -126 -40 -179 17 -16 41 -32 53 -36 l24 -7
-7 114 c-4 62 -8 114 -9 114 0 1 -10 -2 -21 -6z"/>
<path d="M8915 8635 c-30 -30 -31 -54 -4 -89 29 -36 80 -36 109 1 55 70 -42
151 -105 88z"/>
<path d="M8750 8430 c-26 -26 -26 -81 -2 -103 26 -24 77 -21 102 5 27 29 25
64 -5 93 -29 30 -68 32 -95 5z"/>
</g>
</svg>
